HIERARCHY
ROOT Hips
{
     OFFSET 19.44660 94.11710 -16.84400
     CHANNELS 6 Xposition Yposition Zposition Zrotation Xrotation Yrotation
     JOINT Spine
     {
          OFFSET 0.00000 11.89050 -0.00000
          CHANNELS 3 Zrotation Xrotation Yrotation
          JOINT Spine1
          {
               OFFSET 0.00000 25.65740 0.12766
               CHANNELS 3 Zrotation Xrotation Yrotation
               JOINT HEad
               {
                    OFFSET -0.00000 8.73416 0.01134
                    CHANNELS 3 Zrotation Xrotation Yrotation
                    End Site
                    {
                         OFFSET -0.29000 12.77420 2.51395
                    }
               }
               JOINT LeftShoulder1
               {
                    OFFSET 8.99000 -0.36225 -0.22000
                    CHANNELS 3 Zrotation Xrotation Yrotation
                    JOINT LeftArm
                    {
                         OFFSET 10.28270 -0.00338 0.32212
                         CHANNELS 3 Zrotation Xrotation Yrotation
                         JOINT LeftForeArm
                         {
                              OFFSET 32.76690 0.09914 -1.42434
                              CHANNELS 3 Zrotation Xrotation Yrotation
                              JOINT LeftHand
                              {
                                   OFFSET 27.56430 0.08536 1.02216
                                   CHANNELS 3 Zrotation Xrotation Yrotation
                                   End Site
                                   {
                                        OFFSET 16.74430 -0.60000 1.50291
                                   }
                              }
                         }
                    }
               }
               JOINT RightShoulder
               {
                    OFFSET -8.99000 -0.36225 -0.22000
                    CHANNELS 3 Zrotation Xrotation Yrotation
                    JOINT RightArm
                    {
                         OFFSET -10.28270 -0.00338 0.32212
                         CHANNELS 3 Zrotation Xrotation Yrotation
                         JOINT RightForeArm
                         {
                              OFFSET -32.89710 0.09914 -1.42434
                              CHANNELS 3 Zrotation Xrotation Yrotation
                              JOINT RightHand
                              {
                                   OFFSET -27.49210 0.08536 1.02216
                                   CHANNELS 3 Zrotation Xrotation Yrotation
                                   End Site
                                   {
                                        OFFSET -16.63120 -0.60000 1.50291
                                   }
                              }
                         }
                    }
               }
          }
     }
     JOINT LeftUpLeg
     {
          OFFSET 8.94580 -8.66707 0.10165
          CHANNELS 3 Zrotation Xrotation Yrotation
          JOINT LeftLeg
          {
               OFFSET -0.00000 -44.42270 1.37270
               CHANNELS 3 Zrotation Xrotation Yrotation
               JOINT LeftFoot
               {
                    OFFSET -0.25355 -42.09240 -1.46059
                    CHANNELS 3 Zrotation Xrotation Yrotation
                    JOINT LeftToes
                    {
                         OFFSET -0.04000 -4.41509 8.49910
                         CHANNELS 3 Zrotation Xrotation Yrotation
                         End Site
                         {
                              OFFSET 0.08000 -0.04745 9.77979
                         }
                    }
               }
          }
     }
     JOINT RightUpLeg
     {
          OFFSET -8.94580 -8.66707 0.10165
          CHANNELS 3 Zrotation Xrotation Yrotation
          JOINT RightLeg
          {
               OFFSET 0.00000 -44.42270 1.37270
               CHANNELS 3 Zrotation Xrotation Yrotation
               JOINT RightFoot
               {
                    OFFSET 0.25355 -42.09240 -1.46059
                    CHANNELS 3 Zrotation Xrotation Yrotation
                    JOINT RightToes
                    {
                         OFFSET 0.04000 -4.41509 8.49910
                         CHANNELS 3 Zrotation Xrotation Yrotation
                         End Site
                         {
                              OFFSET -0.08000 -0.13745 9.77979
                         }
                    }
               }
          }
     }
}
MOTION
Frames: 10
Frame Time: 0.01667
19.44660 94.11710 -16.84400 -13.07840 -14.33620 -34.46020 -2.92920 13.28650 -1.09808 -2.34596 26.89150 -2.00569 -0.56594 -11.94380 19.17140 -0.00000 0.00000 -0.00000 -80.41670 -50.86540 -81.53180 -17.20040 13.93970 -75.57460 5.27285 9.38183 -8.76621 3.91679 0.37785 1.27159 89.93230 4.33559 86.33340 -3.82724 25.88870 90.77510 19.88640 12.47790 10.04680 27.36180 -0.02676 -17.82600 -33.08010 13.37320 71.09400 -3.37091 12.72270 0.50506 0.97882 -30.61900 -70.44940 -23.15820 12.82920 17.18960 39.26950 17.80810 -24.01110 -30.50170 4.30456 3.16902 7.03818 -46.29610 9.77975 
19.21650 94.21540 -16.88340 -12.80260 -14.48400 -34.23880 -3.17772 13.33400 -1.18215 -2.40948 26.97070 -2.22680 -0.63437 -11.91350 19.36140 -0.00000 0.00000 -0.00000 -79.76670 -51.15670 -80.74540 -17.81460 13.28580 -75.30930 4.96996 9.41646 -8.75712 4.21009 0.37869 1.18391 89.10330 4.06261 86.13600 -3.89595 25.89740 90.60060 19.85340 12.48960 10.13520 27.44360 -0.97733 -17.64580 -34.02640 14.45350 71.63220 -3.32181 13.60780 0.51653 1.28795 -29.99190 -70.36890 -23.38900 12.94990 16.97060 39.32910 17.74990 -24.07290 -30.32910 4.57580 3.22439 7.12095 -46.53880 9.87844 
19.05110 94.41020 -16.82170 -12.44340 -14.56430 -33.99470 -3.38770 13.37420 -1.23878 -2.45442 27.01190 -2.39572 -0.64542 -11.83980 19.50250 -0.00000 0.00000 -0.00000 -79.09360 -51.26370 -80.01950 -18.12340 12.65570 -75.11070 4.82400 9.43130 -8.80397 4.36204 0.38180 1.17331 88.40130 3.72049 86.01930 -3.88443 25.88550 90.28660 19.75830 12.49470 10.23140 27.41220 -1.80141 -17.29160 -34.80760 15.17910 72.10730 -3.41283 14.10780 0.54516 1.88873 -28.78340 -70.04500 -23.73550 13.13850 16.95330 39.30660 17.30150 -23.88710 -29.90340 5.06058 3.30724 7.10438 -46.52120 9.83759 
18.94400 94.67720 -16.65670 -12.01080 -14.56960 -33.72190 -3.55112 13.39140 -1.27435 -2.47635 26.98570 -2.52040 -0.60889 -11.73110 19.61300 -0.00000 0.00000 -0.00000 -78.49590 -51.28610 -79.39160 -18.20520 12.22820 -74.98020 4.83915 9.42692 -8.87811 4.37249 0.38788 1.24425 87.82690 3.37591 85.97590 -3.86751 25.83520 89.85260 19.53650 12.49130 10.37300 27.27930 -2.51911 -16.72720 -35.36290 15.58650 72.52000 -3.64058 14.12750 0.58875 2.60658 -27.31070 -69.55600 -24.16060 13.38750 17.12630 39.21190 16.50620 -23.56700 -29.29970 5.63193 3.38740 6.98110 -46.19730 9.66338 
18.89000 94.99020 -16.39510 -11.49790 -14.50230 -33.37610 -3.67226 13.35530 -1.29373 -2.49228 26.83710 -2.59923 -0.57762 -11.51640 19.61870 -0.00000 0.00000 -0.00000 -77.98020 -51.24900 -78.83750 -18.21370 12.08150 -74.90150 4.91015 9.41813 -8.89693 4.33358 0.39466 1.34021 87.32180 3.08755 85.95740 -3.87390 25.74240 89.31580 19.15790 12.47970 10.58930 27.04840 -3.19535 -16.01970 -35.67370 15.68740 72.85620 -3.90591 13.68370 0.62663 3.28666 -25.87810 -68.95570 -24.65950 13.68150 17.43920 39.07910 15.43270 -23.18090 -28.58370 6.20748 3.44797 6.75878 -45.55720 9.37437 
18.88730 95.32400 -16.04840 -10.92300 -14.37340 -32.92250 -3.74397 13.25920 -1.30080 -2.50445 26.55890 -2.63137 -0.63673 -11.13820 19.40080 -0.00000 0.00000 -0.00000 -77.46240 -51.09770 -78.30550 -18.25430 12.10030 -74.86760 4.89406 9.42335 -8.80403 4.29390 0.39876 1.40409 86.84750 2.89192 85.96760 -3.88675 25.61250 88.69030 18.64450 12.46150 10.88020 26.75130 -3.87036 -15.33880 -35.75410 15.41070 73.15780 -4.10412 12.92110 0.64085 3.86264 -24.62490 -68.32990 -25.22250 14.01750 17.84210 38.94710 14.15520 -22.74110 -27.82550 6.75880 3.48947 6.43261 -44.62680 8.91191 
18.93480 95.65800 -15.62900 -10.33220 -14.18570 -32.35350 -3.73470 13.12340 -1.30176 -2.48271 26.19720 -2.62569 -0.83364 -10.60660 18.89330 -0.00000 0.00000 -0.00000 -76.84910 -50.74930 -77.76610 -18.33770 12.05930 -74.87400 4.71360 9.45036 -8.61632 4.21214 0.39750 1.41702 86.41450 2.79975 86.08240 -3.88023 25.46360 88.00900 18.05150 12.43690 11.21360 26.44520 -4.54137 -14.84740 -35.60070 14.64450 73.47510 -4.15789 12.08620 0.62540 4.33663 -23.55640 -67.74870 -25.80420 14.39480 18.27770 38.82700 12.76000 -22.25280 -27.05200 7.29305 3.51730 6.01810 -43.47310 8.24305 
19.02760 95.97470 -15.14550 -9.77431 -13.93580 -31.69210 -3.60677 12.96750 -1.29874 -2.40451 25.80020 -2.58245 -1.10457 -9.99036 18.12630 -0.00000 0.00000 -0.00000 -76.08040 -50.16440 -77.21000 -18.48580 11.79140 -74.88550 4.41122 9.49049 -8.42010 4.03911 0.39148 1.40264 86.03320 2.80078 86.38410 -3.85505 25.32060 87.32350 17.41330 12.40140 11.53970 26.19210 -5.16095 -14.62020 -35.19360 13.28000 73.79660 -3.98909 11.44710 0.57817 4.73120 -22.63650 -67.19010 -26.34860 14.80000 18.69720 38.71050 11.34010 -21.75770 -26.23130 7.80521 3.52594 5.57262 -42.17230 7.47974 
19.15660 96.25500 -14.60150 -9.27761 -13.64020 -30.98630 -3.34892 12.79800 -1.27985 -2.29269 25.39480 -2.47747 -1.32037 -9.36576 17.16780 -0.00000 0.00000 -0.00000 -75.10800 -49.34020 -76.62690 -18.76310 11.23360 -74.85040 4.10706 9.52712 -8.31374 3.77887 0.38499 1.41329 85.68160 2.87045 86.91230 -3.84716 25.19720 86.68380 16.71610 12.34750 11.82330 26.03870 -5.64826 -14.67770 -34.55610 11.23260 74.02610 -3.58870 11.17810 0.50490 5.14275 -21.64010 -66.50760 -26.84800 15.21910 19.11000 38.61190 9.95541 -21.33970 -25.34400 8.26560 3.50568 5.16622 -40.79180 6.82628 
19.31240 96.48070 -13.99800 -8.84326 -13.34270 -30.28210 -2.98831 12.61850 -1.22443 -2.19952 25.00120 -2.28056 -1.41182 -8.75185 16.05100 -0.00000 0.00000 -0.00000 -73.90010 -48.26520 -76.02050 -19.20520 10.35490 -74.75250 3.86161 9.55347 -8.33024 3.46157 0.38323 1.51040 85.33900 2.98305 87.66340 -3.89480 25.08870 86.12380 15.92220 12.27120 12.07130 25.89810 -6.43788 -14.88290 -33.88260 9.54346 74.08430 -3.59842 11.09590 0.50442 5.76643 -20.04710 -65.49730 -27.34740 15.65670 19.56960 38.56280 8.62127 -21.08380 -24.47000 8.65796 3.46535 4.84494 -39.43850 6.42213 
